<mxfile host="65bd71144e">
    <diagram id="AdfXOnqm-1cSPFKn8X6Z" name="Page-1">
        <mxGraphModel dx="658" dy="529" grid="1" gridSize="10" guides="1" tooltips="1" connect="1" arrows="1" fold="1" page="1" pageScale="1" pageWidth="827" pageHeight="1169" math="0" shadow="0">
            <root>
                <mxCell id="0"/>
                <mxCell id="1" parent="0"/>
                <mxCell id="39" value="Books" style="swimlane;childLayout=stackLayout;horizontal=1;startSize=30;horizontalStack=0;rounded=1;fontSize=14;fontStyle=0;strokeWidth=2;resizeParent=0;resizeLast=1;shadow=0;dashed=0;align=center;fillColor=#cce5ff;strokeColor=#36393d;fontColor=#1A1A1A;" vertex="1" parent="1">
                    <mxGeometry x="10" y="80" width="190" height="210" as="geometry">
                        <mxRectangle x="140" y="210" width="70" height="30" as="alternateBounds"/>
                    </mxGeometry>
                </mxCell>
                <mxCell id="40" value="+bookId: int&#10;+title: varchar(100)&#10;+description: text&#10;+buyingDate: date&#10;+startReadingDate: date&#10;+endReadingDate: date&#10;+publishDate:date&#10;+chapters: int&#10;+fkCategoriesID: enum&#10;+fkAuthorId: int&#10;" style="align=left;strokeColor=#36393d;fillColor=#f9f7ed;spacingLeft=4;fontSize=12;verticalAlign=top;resizable=0;rotatable=0;part=1;fontColor=#1A1A1A;" vertex="1" parent="39">
                    <mxGeometry y="30" width="190" height="180" as="geometry"/>
                </mxCell>
                <mxCell id="41" value="" style="align=left;strokeColor=#36393d;fillColor=#f9f7ed;spacingLeft=4;fontSize=12;verticalAlign=top;resizable=0;rotatable=0;part=1;fontColor=#1A1A1A;" vertex="1" parent="39">
                    <mxGeometry y="210" width="190" as="geometry"/>
                </mxCell>
                <mxCell id="42" value="Authors" style="swimlane;childLayout=stackLayout;horizontal=1;startSize=30;horizontalStack=0;rounded=1;fontSize=14;fontStyle=0;strokeWidth=2;resizeParent=0;resizeLast=1;shadow=0;dashed=0;align=center;fillColor=#cce5ff;strokeColor=#36393d;fontColor=#1A1A1A;" vertex="1" parent="1">
                    <mxGeometry x="440" y="50" width="210" height="200" as="geometry">
                        <mxRectangle x="140" y="210" width="70" height="30" as="alternateBounds"/>
                    </mxGeometry>
                </mxCell>
                <mxCell id="43" value="+authorId: int&#10;+authorFName: varchar(100)&#10;+authorLName: varchar(100)&#10;+dateOfBirth: date&#10;+fkbookId: int&#10;+fkCategoriesId: enum&#10;" style="align=left;strokeColor=#36393d;fillColor=#f9f7ed;spacingLeft=4;fontSize=12;verticalAlign=top;resizable=0;rotatable=0;part=1;fontColor=#1A1A1A;" vertex="1" parent="42">
                    <mxGeometry y="30" width="210" height="180" as="geometry"/>
                </mxCell>
                <mxCell id="44" value="" style="align=left;strokeColor=#36393d;fillColor=#f9f7ed;spacingLeft=4;fontSize=12;verticalAlign=top;resizable=0;rotatable=0;part=1;fontColor=#1A1A1A;" vertex="1" parent="42">
                    <mxGeometry y="210" width="210" height="-10" as="geometry"/>
                </mxCell>
                <mxCell id="47" style="edgeStyle=orthogonalEdgeStyle;rounded=0;orthogonalLoop=1;jettySize=auto;html=1;exitX=0.5;exitY=1;exitDx=0;exitDy=0;fontColor=#1A1A1A;" edge="1" parent="42" source="43" target="43">
                    <mxGeometry relative="1" as="geometry"/>
                </mxCell>
                <mxCell id="48" value="Categories" style="swimlane;childLayout=stackLayout;horizontal=1;startSize=30;horizontalStack=0;rounded=1;fontSize=14;fontStyle=0;strokeWidth=2;resizeParent=0;resizeLast=1;shadow=0;dashed=0;align=center;fillColor=#cce5ff;strokeColor=#36393d;fontColor=#1A1A1A;" vertex="1" parent="1">
                    <mxGeometry x="230" y="320" width="190" height="210" as="geometry">
                        <mxRectangle x="140" y="210" width="70" height="30" as="alternateBounds"/>
                    </mxGeometry>
                </mxCell>
                <mxCell id="49" value="+categoryId: int&#10;+categoryName: varchar(100)&#10;&#10;" style="align=left;strokeColor=#36393d;fillColor=#f9f7ed;spacingLeft=4;fontSize=12;verticalAlign=top;resizable=0;rotatable=0;part=1;fontColor=#1A1A1A;" vertex="1" parent="48">
                    <mxGeometry y="30" width="190" height="180" as="geometry"/>
                </mxCell>
                <mxCell id="50" value="" style="align=left;strokeColor=#36393d;fillColor=#f9f7ed;spacingLeft=4;fontSize=12;verticalAlign=top;resizable=0;rotatable=0;part=1;fontColor=#1A1A1A;" vertex="1" parent="48">
                    <mxGeometry y="210" width="190" as="geometry"/>
                </mxCell>
                <mxCell id="51" style="edgeStyle=orthogonalEdgeStyle;rounded=0;orthogonalLoop=1;jettySize=auto;html=1;exitX=1;exitY=1;exitDx=0;exitDy=0;fontColor=#1A1A1A;" edge="1" parent="48" source="48" target="49">
                    <mxGeometry relative="1" as="geometry">
                        <Array as="points">
                            <mxPoint x="190" y="230"/>
                            <mxPoint x="95" y="230"/>
                        </Array>
                    </mxGeometry>
                </mxCell>
                <mxCell id="53" value="" style="edgeStyle=entityRelationEdgeStyle;fontSize=12;html=1;endArrow=ERzeroToMany;endFill=1;startArrow=ERzeroToMany;fontColor=#1A1A1A;entryX=0.016;entryY=0.148;entryDx=0;entryDy=0;entryPerimeter=0;fillColor=#ffff88;strokeColor=#FFB366;" edge="1" parent="1" target="48">
                    <mxGeometry width="100" height="100" relative="1" as="geometry">
                        <mxPoint x="200" y="225" as="sourcePoint"/>
                        <mxPoint x="300" y="125" as="targetPoint"/>
                    </mxGeometry>
                </mxCell>
                <mxCell id="54" value="" style="edgeStyle=entityRelationEdgeStyle;fontSize=12;html=1;endArrow=ERzeroToMany;endFill=1;startArrow=ERzeroToMany;fontColor=#1A1A1A;entryX=0;entryY=0.54;entryDx=0;entryDy=0;entryPerimeter=0;exitX=1;exitY=0.25;exitDx=0;exitDy=0;strokeColor=#FFB366;" edge="1" parent="1" source="48" target="43">
                    <mxGeometry width="100" height="100" relative="1" as="geometry">
                        <mxPoint x="400" y="310" as="sourcePoint"/>
                        <mxPoint x="500" y="210" as="targetPoint"/>
                    </mxGeometry>
                </mxCell>
            </root>
        </mxGraphModel>
    </diagram>
</mxfile>